<mxfile host="65bd71144e">
    <diagram id="K80YQ36KAa0OmbvcGgRX" name="Page-1">
        <mxGraphModel dx="1867" dy="2039" grid="1" gridSize="10" guides="1" tooltips="1" connect="1" arrows="1" fold="1" page="1" pageScale="1" pageWidth="827" pageHeight="1169" math="0" shadow="0">
            <root>
                <mxCell id="0"/>
                <mxCell id="1" parent="0"/>
                <mxCell id="tGKUWsnCtgxajNB9y1TM-1" value="" style="rounded=0;whiteSpace=wrap;html=1;dashed=1;strokeColor=#3399FF;strokeWidth=1;" parent="1" vertex="1">
                    <mxGeometry x="40" y="10" width="580" height="390" as="geometry"/>
                </mxCell>
                <mxCell id="tGKUWsnCtgxajNB9y1TM-26" value="" style="group;whiteSpace=wrap;" parent="1" vertex="1" connectable="0">
                    <mxGeometry x="145" y="92" width="335" height="202.69" as="geometry"/>
                </mxCell>
                <mxCell id="tGKUWsnCtgxajNB9y1TM-20" value="" style="rounded=0;whiteSpace=wrap;html=1;" parent="tGKUWsnCtgxajNB9y1TM-26" vertex="1">
                    <mxGeometry x="15" y="60" width="320" height="142.69" as="geometry"/>
                </mxCell>
                <mxCell id="tGKUWsnCtgxajNB9y1TM-11" value="Container Registry" style="image;aspect=fixed;html=1;points=[];align=center;fontSize=12;image=img/lib/azure2/containers/Container_Registries.svg;whiteSpace=wrap;" parent="tGKUWsnCtgxajNB9y1TM-26" vertex="1">
                    <mxGeometry x="45.86" y="98.72692307692307" width="36.79" height="33" as="geometry"/>
                </mxCell>
                <mxCell id="tGKUWsnCtgxajNB9y1TM-12" value="Key Vault" style="image;sketch=0;aspect=fixed;html=1;points=[];align=center;fontSize=12;image=img/lib/mscae/Key_Vaults.svg;whiteSpace=wrap;" parent="tGKUWsnCtgxajNB9y1TM-26" vertex="1">
                    <mxGeometry x="128.05" y="87.99615384615385" width="36" height="37.5" as="geometry"/>
                </mxCell>
                <mxCell id="tGKUWsnCtgxajNB9y1TM-13" value="AzureML workspace" style="image;aspect=fixed;html=1;points=[];align=center;fontSize=12;image=img/lib/azure2/ai_machine_learning/Machine_Learning.svg;whiteSpace=wrap;" parent="tGKUWsnCtgxajNB9y1TM-26" vertex="1">
                    <mxGeometry x="208.58999999999997" y="93.36153846153846" width="35.3" height="37.5" as="geometry"/>
                </mxCell>
                <mxCell id="tGKUWsnCtgxajNB9y1TM-14" value="Storage Account" style="image;aspect=fixed;html=1;points=[];align=center;fontSize=12;image=img/lib/azure2/storage/Storage_Accounts.svg;whiteSpace=wrap;" parent="tGKUWsnCtgxajNB9y1TM-26" vertex="1">
                    <mxGeometry x="281.25" y="98.72692307692307" width="38.75" height="31" as="geometry"/>
                </mxCell>
                <mxCell id="tGKUWsnCtgxajNB9y1TM-41" value="" style="rounded=0;whiteSpace=wrap;html=1;" parent="1" vertex="1">
                    <mxGeometry x="209" y="20" width="220" height="60" as="geometry"/>
                </mxCell>
                <mxCell id="tGKUWsnCtgxajNB9y1TM-28" value="storage" style="image;aspect=fixed;html=1;points=[];align=center;fontSize=12;image=img/lib/azure2/storage/Storage_Accounts.svg;" parent="1" vertex="1">
                    <mxGeometry x="369" y="25" width="31.25" height="25" as="geometry"/>
                </mxCell>
                <mxCell id="tGKUWsnCtgxajNB9y1TM-29" value="log analytics" style="image;aspect=fixed;html=1;points=[];align=center;fontSize=12;image=img/lib/azure2/management_governance/Log_Analytics_Workspaces.svg;" parent="1" vertex="1">
                    <mxGeometry x="234.17999999999995" y="20" width="30" height="30" as="geometry"/>
                </mxCell>
                <mxCell id="tGKUWsnCtgxajNB9y1TM-30" value="App Insights" style="image;aspect=fixed;html=1;points=[];align=center;fontSize=12;image=img/lib/azure2/analytics/Endpoint_Analytics.svg;whiteSpace=wrap;" parent="1" vertex="1">
                    <mxGeometry x="302.5" y="25" width="25" height="25" as="geometry"/>
                </mxCell>
                <mxCell id="tGKUWsnCtgxajNB9y1TM-37" value="" style="group" parent="1" vertex="1" connectable="0">
                    <mxGeometry x="270" y="97" width="90" height="40" as="geometry"/>
                </mxCell>
                <mxCell id="tGKUWsnCtgxajNB9y1TM-32" value="" style="rounded=1;whiteSpace=wrap;html=1;strokeWidth=2;strokeColor=#66B2FF;" parent="tGKUWsnCtgxajNB9y1TM-37" vertex="1">
                    <mxGeometry width="90" height="40" as="geometry"/>
                </mxCell>
                <mxCell id="tGKUWsnCtgxajNB9y1TM-31" value="AMPLS" style="image;aspect=fixed;html=1;points=[];align=center;fontSize=12;image=img/lib/azure2/networking/Private_Link.svg;" parent="tGKUWsnCtgxajNB9y1TM-37" vertex="1">
                    <mxGeometry x="35.86" y="11.623333333333333" width="18.281081081081084" height="16.756756756756754" as="geometry"/>
                </mxCell>
                <mxCell id="tGKUWsnCtgxajNB9y1TM-68" value="" style="line;strokeWidth=2;fillColor=#007FFF;align=left;verticalAlign=middle;spacingTop=-1;spacingLeft=3;spacingRight=3;rotatable=0;labelPosition=right;points=[];portConstraint=eastwest;strokeColor=#6c8ebf;dashed=1;" parent="1" vertex="1">
                    <mxGeometry x="-170" y="489" width="960" height="8" as="geometry"/>
                </mxCell>
                <mxCell id="tGKUWsnCtgxajNB9y1TM-69" value="AI Model Manager" style="rounded=0;whiteSpace=wrap;html=1;" parent="1" vertex="1">
                    <mxGeometry x="-60" y="562" width="120" height="60" as="geometry"/>
                </mxCell>
                <mxCell id="tGKUWsnCtgxajNB9y1TM-70" value="AI Model Monitor" style="rounded=0;whiteSpace=wrap;html=1;" parent="1" vertex="1">
                    <mxGeometry x="600" y="559" width="120" height="60" as="geometry"/>
                </mxCell>
                <mxCell id="tGKUWsnCtgxajNB9y1TM-96" value="" style="rounded=0;whiteSpace=wrap;html=1;fillColor=#E6E6E6;" parent="1" vertex="1">
                    <mxGeometry x="-270" y="-5" width="60" height="410" as="geometry"/>
                </mxCell>
                <mxCell id="tGKUWsnCtgxajNB9y1TM-98" value="&lt;font style=&quot;font-size: 18px;&quot;&gt;Azure&amp;nbsp;&lt;br&gt;Cloud&lt;br&gt;Layer&lt;/font&gt;" style="text;html=1;strokeColor=none;fillColor=none;align=center;verticalAlign=middle;whiteSpace=wrap;rounded=0;" parent="1" vertex="1">
                    <mxGeometry x="-270" y="154.5" width="60" height="30" as="geometry"/>
                </mxCell>
                <mxCell id="tGKUWsnCtgxajNB9y1TM-99" value="" style="rounded=0;whiteSpace=wrap;html=1;fillColor=#E6E6E6;" parent="1" vertex="1">
                    <mxGeometry x="-270" y="510" width="60" height="150" as="geometry"/>
                </mxCell>
                <mxCell id="tGKUWsnCtgxajNB9y1TM-100" value="IT&amp;nbsp;&lt;br style=&quot;font-size: 18px;&quot;&gt;Layer" style="text;html=1;strokeColor=none;fillColor=none;align=center;verticalAlign=middle;whiteSpace=wrap;rounded=0;fontSize=18;" parent="1" vertex="1">
                    <mxGeometry x="-270" y="567" width="60" height="30" as="geometry"/>
                </mxCell>
                <mxCell id="WVAurJi560WbZtB7paKy-36" value="" style="image;aspect=fixed;perimeter=ellipsePerimeter;html=1;align=center;shadow=0;dashed=0;spacingTop=3;image=img/lib/active_directory/tunnel.svg;direction=south;" parent="1" vertex="1">
                    <mxGeometry x="-4" y="470" width="10" height="50" as="geometry"/>
                </mxCell>
                <mxCell id="WVAurJi560WbZtB7paKy-38" value="" style="image;aspect=fixed;perimeter=ellipsePerimeter;html=1;align=center;shadow=0;dashed=0;spacingTop=3;image=img/lib/active_directory/tunnel.svg;direction=south;" parent="1" vertex="1">
                    <mxGeometry x="655" y="470" width="10" height="50" as="geometry"/>
                </mxCell>
                <mxCell id="WVAurJi560WbZtB7paKy-42" value="" style="endArrow=none;html=1;rounded=0;entryX=1;entryY=0.5;entryDx=0;entryDy=0;" parent="1" target="WVAurJi560WbZtB7paKy-36" edge="1">
                    <mxGeometry width="50" height="50" relative="1" as="geometry">
                        <mxPoint x="0.5" y="559" as="sourcePoint"/>
                        <mxPoint x="0.5" y="529" as="targetPoint"/>
                    </mxGeometry>
                </mxCell>
                <mxCell id="WVAurJi560WbZtB7paKy-43" value="" style="endArrow=none;html=1;rounded=0;exitX=0.5;exitY=0;exitDx=0;exitDy=0;" parent="1" source="tGKUWsnCtgxajNB9y1TM-70" edge="1">
                    <mxGeometry width="50" height="50" relative="1" as="geometry">
                        <mxPoint x="660" y="550" as="sourcePoint"/>
                        <mxPoint x="659.5" y="522" as="targetPoint"/>
                    </mxGeometry>
                </mxCell>
                <mxCell id="WVAurJi560WbZtB7paKy-48" value="" style="endArrow=classic;html=1;rounded=0;exitX=0;exitY=0.5;exitDx=0;exitDy=0;entryX=-0.011;entryY=0.618;entryDx=0;entryDy=0;entryPerimeter=0;" parent="1" source="WVAurJi560WbZtB7paKy-36" target="tGKUWsnCtgxajNB9y1TM-66" edge="1">
                    <mxGeometry width="50" height="50" relative="1" as="geometry">
                        <mxPoint x="40" y="470" as="sourcePoint"/>
                        <mxPoint x="220" y="430" as="targetPoint"/>
                    </mxGeometry>
                </mxCell>
                <mxCell id="WVAurJi560WbZtB7paKy-49" value="" style="endArrow=classic;html=1;rounded=0;exitX=0;exitY=0.75;exitDx=0;exitDy=0;entryX=1;entryY=0.5;entryDx=0;entryDy=0;" parent="1" source="WVAurJi560WbZtB7paKy-38" target="tGKUWsnCtgxajNB9y1TM-66" edge="1">
                    <mxGeometry width="50" height="50" relative="1" as="geometry">
                        <mxPoint x="650" y="470" as="sourcePoint"/>
                        <mxPoint x="330" y="420" as="targetPoint"/>
                    </mxGeometry>
                </mxCell>
                <mxCell id="2" value="" style="group" parent="1" vertex="1" connectable="0">
                    <mxGeometry x="224" y="310" width="190" height="68" as="geometry"/>
                </mxCell>
                <mxCell id="tGKUWsnCtgxajNB9y1TM-66" value="" style="rounded=0;whiteSpace=wrap;html=1;" parent="2" vertex="1">
                    <mxGeometry width="190" height="68" as="geometry"/>
                </mxCell>
                <mxCell id="tGKUWsnCtgxajNB9y1TM-65" value="Eventhub" style="image;aspect=fixed;html=1;points=[];align=center;fontSize=12;image=img/lib/azure2/iot/Event_Hubs.svg;" parent="2" vertex="1">
                    <mxGeometry x="122" y="15" width="32.39" height="29" as="geometry"/>
                </mxCell>
                <mxCell id="tGKUWsnCtgxajNB9y1TM-64" value="Iot Hub" style="image;aspect=fixed;html=1;points=[];align=center;fontSize=12;image=img/lib/azure2/iot/IoT_Hub.svg;" parent="2" vertex="1">
                    <mxGeometry x="32" y="13" width="33" height="33" as="geometry"/>
                </mxCell>
            </root>
        </mxGraphModel>
    </diagram>
</mxfile>